<svg width="17" height="16" viewBox="0 0 17 16" fill="none" xmlns="http://www.w3.org/2000/svg">
<path d="M13.8333 7.29525C13.8333 10.9932 8.65621 14.4446 8.65621 14.4446C8.65621 14.4446 3.47913 10.9932 3.47913 7.29525C3.47913 5.9222 4.02457 4.60539 4.99546 3.6345C5.96635 2.66361 7.28316 2.11816 8.65621 2.11816C10.0293 2.11816 11.3461 2.66361 12.317 3.6345C13.2879 4.60539 13.8333 5.9222 13.8333 7.29525Z" fill="#464646" stroke="#464646" stroke-width="1.33333" stroke-linecap="round" stroke-linejoin="round"/>
<path d="M8.65622 8.52778C9.33699 8.52778 9.88886 7.97591 9.88886 7.29514C9.88886 6.61437 9.33699 6.0625 8.65622 6.0625C7.97546 6.0625 7.42358 6.61437 7.42358 7.29514C7.42358 7.97591 7.97546 8.52778 8.65622 8.52778Z" fill="white" stroke="white" stroke-width="1.47917" stroke-linecap="round" stroke-linejoin="round"/>
</svg>
