<svg width="20" height="20" viewBox="0 0 20 20" fill="none" xmlns="http://www.w3.org/2000/svg">
<path d="M10.0498 13.51C9.92018 13.51 9.64521 13.6251 9.30281 13.7996C9.52438 13.7352 9.75778 13.7008 9.99917 13.7008C10.2205 13.7008 10.4352 13.7297 10.6399 13.7839C10.335 13.6185 10.1117 13.51 10.0498 13.51ZM10.0498 13.51C9.92018 13.51 9.64521 13.6251 9.30281 13.7996C9.52438 13.7352 9.75778 13.7008 9.99917 13.7008C10.2205 13.7008 10.4352 13.7297 10.6399 13.7839C10.335 13.6185 10.1117 13.51 10.0498 13.51ZM10.0498 13.51C9.92018 13.51 9.64521 13.6251 9.30281 13.7996C9.52438 13.7352 9.75778 13.7008 9.99917 13.7008C10.2205 13.7008 10.4352 13.7297 10.6399 13.7839C10.335 13.6185 10.1117 13.51 10.0498 13.51ZM10.0498 13.51C9.92018 13.51 9.64521 13.6251 9.30281 13.7996C9.52438 13.7352 9.75778 13.7008 9.99917 13.7008C10.2205 13.7008 10.4352 13.7297 10.6399 13.7839C10.335 13.6185 10.1117 13.51 10.0498 13.51ZM10.0498 13.51C9.92018 13.51 9.64521 13.6251 9.30281 13.7996C9.52438 13.7352 9.75778 13.7008 9.99917 13.7008C10.2205 13.7008 10.4352 13.7297 10.6399 13.7839C10.335 13.6185 10.1117 13.51 10.0498 13.51ZM10.0498 13.51C9.92018 13.51 9.64521 13.6251 9.30281 13.7996C9.52438 13.7352 9.75778 13.7008 9.99917 13.7008C10.2205 13.7008 10.4352 13.7297 10.6399 13.7839C10.335 13.6185 10.1117 13.51 10.0498 13.51ZM16.3567 9.70414H16.3548C16.2948 9.708 16.234 9.70992 16.174 9.70992C15.5511 9.70992 14.9569 9.49989 14.408 9.08589C14.2861 8.99395 14.168 8.89293 14.056 8.78475L12.9867 7.75249L12.0431 8.9133C11.9669 9.00689 11.8829 9.09828 11.7938 9.18416L11.7916 9.18636L11.7844 9.19352C11.2942 9.6612 10.711 9.89848 10.0512 9.89848C9.39144 9.89848 8.83985 9.66698 8.37744 9.20976L8.359 9.19132C8.29514 9.12691 8.23266 9.05726 8.17321 8.98459L7.16527 7.74836L7.15068 7.73047L7.1416 7.74065L6.08219 8.94137C6.01145 9.0212 5.93603 9.098 5.85786 9.16902C5.83722 9.18774 5.81547 9.20701 5.79318 9.22628C5.35362 9.60174 4.55651 10.0573 3.75335 10.0091C3.20397 10.0573 1.21781 9.32978 1.21781 9.32978V15.9131C1.21836 16.0408 1.21478 16.1633 1.21093 16.2927C1.18891 17.0533 1.15836 18.0927 2.20236 19.1395C2.92157 19.8957 4.10209 19.9598 5.15489 19.9598H7.43115L7.4317 19.9273V16.2696C7.4317 15.4493 7.77713 14.7146 8.32267 14.2177C7.41904 14.76 6.51569 15.3606 6.51569 15.3606L6.48432 18.4786H5.15489C4.54303 18.4786 3.53096 18.4629 3.18387 18.0803C2.45916 17.3638 2.62513 16.822 2.62155 15.907V10.9453C2.71541 10.9855 2.81147 11.0216 2.90946 11.0541C3.12993 11.092 3.34654 11.1108 3.55958 11.1108C4.38696 11.1105 5.15324 10.8278 5.80502 10.2759C6.32523 9.83545 6.63157 9.34216 6.73809 9.15306C6.82837 9.33115 7.07224 9.76525 7.49336 10.1861C8.1889 10.8804 9.03169 11.2324 9.99807 11.2324C10.9644 11.2324 11.8213 10.8823 12.5432 10.1919C12.9949 9.76057 13.2536 9.32317 13.345 9.15333C13.4634 9.31326 13.7981 9.73222 14.3276 10.1336C14.9046 10.571 15.5173 10.8473 16.1586 10.9599C16.1586 10.9599 16.8538 11.0984 17.292 11.0185C17.3548 10.9974 17.4167 10.9745 17.4775 10.9495V15.907C17.4775 16.6778 17.4412 17.5361 16.839 18.034C16.4308 18.4657 15.6832 18.4786 15.0639 18.4786H13.4774L13.4816 15.3606C13.4816 15.3606 12.625 14.8211 11.7654 14.3033C11.7819 14.3198 11.7984 14.3366 11.8147 14.354C12.2793 14.8445 12.5666 15.5217 12.5666 16.2696V19.9595H15.0639C15.7696 19.9598 16.9389 19.9598 17.7679 19.1461C18.2565 18.7178 18.5868 18.1364 18.7494 17.4169C18.8711 16.879 18.8813 16.3555 18.8813 15.907V9.01735C18.8813 9.01735 18.0357 10.2082 16.3567 9.70414ZM10.0498 13.51C9.92018 13.51 9.64521 13.6251 9.30281 13.7996C9.52438 13.7352 9.75778 13.7008 9.99917 13.7008C10.2205 13.7008 10.4352 13.7297 10.6399 13.7839C10.335 13.6185 10.1117 13.51 10.0498 13.51ZM10.0498 13.51C9.92018 13.51 9.64521 13.6251 9.30281 13.7996C9.52438 13.7352 9.75778 13.7008 9.99917 13.7008C10.2205 13.7008 10.4352 13.7297 10.6399 13.7839C10.335 13.6185 10.1117 13.51 10.0498 13.51ZM10.0498 13.51C9.92018 13.51 9.64521 13.6251 9.30281 13.7996C9.52438 13.7352 9.75778 13.7008 9.99917 13.7008C10.2205 13.7008 10.4352 13.7297 10.6399 13.7839C10.335 13.6185 10.1117 13.51 10.0498 13.51ZM10.0498 13.51C9.92018 13.51 9.64521 13.6251 9.30281 13.7996C9.52438 13.7352 9.75778 13.7008 9.99917 13.7008C10.2205 13.7008 10.4352 13.7297 10.6399 13.7839C10.335 13.6185 10.1117 13.51 10.0498 13.51Z" fill="#464646"/>
<path d="M13.6581 14.9642C13.458 14.4913 13.1717 14.0665 12.8076 13.7023C12.4434 13.3379 12.0187 13.0519 11.5456 12.8518C11.0551 12.6442 10.5349 12.5391 9.99953 12.5391C9.46418 12.5391 8.9437 12.6442 8.45321 12.8518C7.98007 13.0519 7.55565 13.3379 7.1915 13.7023C6.82708 14.0665 6.54082 14.4913 6.341 14.9642C6.13346 15.455 6.02832 15.9752 6.02832 16.5106V19.9297H7.43206V16.463C7.43206 15.6857 7.77749 14.9892 8.32302 14.5182C8.6035 14.2763 8.93682 14.0938 9.30316 13.9911C9.52474 13.9286 9.75814 13.8953 9.99953 13.8953C10.2208 13.8953 10.4355 13.9234 10.6403 13.976C11.0689 14.0861 11.4542 14.3041 11.7658 14.5994C11.7823 14.6151 11.7988 14.6311 11.815 14.6473C12.2796 15.1123 12.567 15.7542 12.567 16.463V19.9297H13.9707V16.5106C13.9707 15.9752 13.8656 15.455 13.6581 14.9642Z" fill="#464646"/>
<path d="M19.8043 6.36393L18.5475 2.60734C18.026 1.04767 16.5597 0 14.8992 0H5.06338C4.24536 0 3.46312 0.251595 2.80171 0.728085C2.13864 1.20568 1.65532 1.8666 1.4043 2.63927L0.184693 6.39586C-0.27166 7.80083 0.134324 9.3305 1.21851 10.3352C1.25071 10.3652 1.28346 10.3947 1.31704 10.4236C1.33521 10.4401 1.3542 10.4558 1.37429 10.4707L1.39852 10.488C1.76211 10.7363 2.17305 10.9097 2.62225 11.005C2.69904 11.0212 2.77693 11.0352 2.85593 11.0471C2.86006 11.0476 2.86391 11.0482 2.86804 11.0487H2.86831C2.88235 11.0515 2.89639 11.054 2.91015 11.0562C3.13062 11.0941 3.34724 11.1129 3.56028 11.1129C4.38766 11.1126 5.15393 10.8299 5.80571 10.278C6.32592 9.83754 6.63227 9.34426 6.73878 9.15515C6.82906 9.33325 7.07293 9.76735 7.49405 10.1882C8.18959 10.8825 9.03239 11.2345 9.99877 11.2345C10.9651 11.2345 11.822 10.8844 12.5439 10.194C12.9956 9.76267 13.2543 9.32527 13.3457 9.15543C13.4641 9.31536 13.7988 9.73432 14.3283 10.1357C14.9053 10.5731 15.5179 10.8494 16.1593 10.962C16.1593 10.962 16.8545 11.1005 17.2927 11.0206C17.3012 11.0193 17.3098 11.0176 17.318 11.016C17.3701 11.0052 17.4237 10.992 17.4782 10.9772C17.8812 10.8668 18.3221 10.6628 18.3221 10.6628C18.4157 10.6113 18.5068 10.5543 18.5949 10.4919C18.6235 10.4729 18.6508 10.4517 18.6766 10.4288C18.7479 10.3674 18.8162 10.3038 18.882 10.2383C18.9505 10.1701 19.016 10.0999 19.0785 10.0275L19.1993 9.90663L19.1878 9.89507C19.9686 8.90493 20.2133 7.58695 19.8043 6.36393ZM7.14229 7.74275C7.02504 7.70531 6.90173 7.68439 6.77567 7.68109C6.24968 7.66733 5.76112 7.96792 5.52606 8.44744C5.50322 8.48983 5.28991 8.8752 4.89878 9.20663C4.38408 9.6421 3.80056 9.79267 3.11466 9.66687L3.06649 9.65889C2.74886 9.61237 2.46481 9.50832 2.22149 9.34949C1.50228 8.7172 1.22676 7.73174 1.5199 6.82941L2.7395 3.07282C3.06374 2.07442 3.99764 1.40387 5.06338 1.40387H14.8992C15.9553 1.40387 16.8865 2.06644 17.2165 3.05273L18.473 6.80959C18.7774 7.71853 18.5038 8.7128 17.7763 9.35142C17.5556 9.50612 17.3012 9.5909 16.9999 9.61045C16.3638 9.65201 15.7505 9.45217 15.1764 9.01697C14.7365 8.68362 14.4778 8.32604 14.4605 8.30182C14.1863 7.8925 13.7165 7.66182 13.2323 7.70091C12.752 7.7389 12.3259 8.03591 12.1165 8.47689C12.0942 8.51901 11.9125 8.85593 11.5743 9.1791C11.1157 9.61733 10.6004 9.83066 9.99877 9.83066C9.39708 9.83066 8.91458 9.62256 8.48575 9.19479C8.17088 8.88016 8.00876 8.55754 7.98316 8.50469C7.82572 8.14244 7.52488 7.8713 7.16596 7.75046C7.15798 7.7477 7.15027 7.74495 7.14229 7.74275Z" fill="#464646"/>
</svg>
